<mxfile host="app.diagrams.net" modified="2021-09-15T17:27:48.275Z" agent="5.0 (Windows NT 10.0; Win64; x64) AppleWebKit/537.36 (KHTML, like Gecko) Chrome/93.0.4577.82 Safari/537.36" etag="8UWyIuvY-WDBrvmBnPvP" version="15.2.7" type="github">
  <diagram id="yPxyJZ8AM_hMuL3Unpa9" name="complex gitflow">
    <mxGraphModel dx="1930" dy="2357" grid="1" gridSize="10" guides="1" tooltips="1" connect="1" arrows="1" fold="1" page="1" pageScale="1" pageWidth="1100" pageHeight="850" math="0" shadow="0">
      <root>
        <mxCell id="0" />
        <mxCell id="1" parent="0" />
        <mxCell id="WrQY5icMR6syhaIgD9Ea-43" value="" style="endArrow=none;html=1;exitX=1;exitY=0;exitDx=0;exitDy=0;fillColor=#e1d5e7;strokeColor=#9673a6;entryX=0.433;entryY=0.583;entryDx=0;entryDy=0;entryPerimeter=0;endFill=0;" parent="1" source="WrQY5icMR6syhaIgD9Ea-9" target="WrQY5icMR6syhaIgD9Ea-47" edge="1">
          <mxGeometry relative="1" as="geometry">
            <mxPoint x="-730" y="520" as="sourcePoint" />
            <mxPoint x="-470" y="160" as="targetPoint" />
          </mxGeometry>
        </mxCell>
        <mxCell id="WrQY5icMR6syhaIgD9Ea-44" value="SampleSheet" style="edgeLabel;resizable=0;html=1;align=center;verticalAlign=middle;" parent="WrQY5icMR6syhaIgD9Ea-43" connectable="0" vertex="1">
          <mxGeometry relative="1" as="geometry">
            <mxPoint x="-10" as="offset" />
          </mxGeometry>
        </mxCell>
        <mxCell id="WrQY5icMR6syhaIgD9Ea-1" value="MiSeq" style="rounded=1;whiteSpace=wrap;html=1;fillColor=#fff2cc;strokeColor=#d6b656;" parent="1" vertex="1">
          <mxGeometry x="-790" y="20" width="190" height="70" as="geometry" />
        </mxCell>
        <mxCell id="WrQY5icMR6syhaIgD9Ea-2" value="LIMS" style="rounded=1;whiteSpace=wrap;html=1;fillColor=#ffcccc;strokeColor=#36393d;" parent="1" vertex="1">
          <mxGeometry x="-1040" y="90" width="120" height="60" as="geometry" />
        </mxCell>
        <mxCell id="WrQY5icMR6syhaIgD9Ea-3" value="NovaSeqs" style="rounded=1;whiteSpace=wrap;html=1;strokeColor=#23445d;gradientDirection=east;fillColor=#BAC8D3;gradientColor=#B1DDF0;" parent="1" vertex="1">
          <mxGeometry x="-790" y="100" width="190" height="70" as="geometry" />
        </mxCell>
        <mxCell id="WrQY5icMR6syhaIgD9Ea-9" value="Genops" style="rounded=1;whiteSpace=wrap;html=1;fillColor=#e1d5e7;strokeColor=#9673a6;" parent="1" vertex="1">
          <mxGeometry x="-1040" y="270" width="120" height="60" as="geometry" />
        </mxCell>
        <mxCell id="WrQY5icMR6syhaIgD9Ea-27" value="" style="endArrow=classic;html=1;exitX=0.5;exitY=1;exitDx=0;exitDy=0;entryX=0.5;entryY=0;entryDx=0;entryDy=0;fillColor=#ffff88;" parent="1" source="WrQY5icMR6syhaIgD9Ea-2" target="WrQY5icMR6syhaIgD9Ea-9" edge="1">
          <mxGeometry relative="1" as="geometry">
            <mxPoint x="-980" y="360" as="sourcePoint" />
            <mxPoint x="-880" y="360" as="targetPoint" />
          </mxGeometry>
        </mxCell>
        <mxCell id="WrQY5icMR6syhaIgD9Ea-28" value="SampleSheet" style="edgeLabel;resizable=0;html=1;align=center;verticalAlign=middle;" parent="WrQY5icMR6syhaIgD9Ea-27" connectable="0" vertex="1">
          <mxGeometry relative="1" as="geometry" />
        </mxCell>
        <mxCell id="WrQY5icMR6syhaIgD9Ea-33" value="" style="endArrow=none;html=1;exitX=1;exitY=0.5;exitDx=0;exitDy=0;fillColor=#bac8d3;strokeColor=#23445d;endFill=0;" parent="1" source="WrQY5icMR6syhaIgD9Ea-3" edge="1">
          <mxGeometry relative="1" as="geometry">
            <mxPoint x="-540" y="380" as="sourcePoint" />
            <mxPoint x="-490" y="135" as="targetPoint" />
          </mxGeometry>
        </mxCell>
        <mxCell id="WrQY5icMR6syhaIgD9Ea-34" value="BCL" style="edgeLabel;resizable=0;html=1;align=center;verticalAlign=middle;" parent="WrQY5icMR6syhaIgD9Ea-33" connectable="0" vertex="1">
          <mxGeometry relative="1" as="geometry" />
        </mxCell>
        <mxCell id="WrQY5icMR6syhaIgD9Ea-35" value="" style="endArrow=classic;html=1;exitX=1;exitY=0.5;exitDx=0;exitDy=0;entryX=0;entryY=0.5;entryDx=0;entryDy=0;fillColor=#fff2cc;strokeColor=#d6b656;" parent="1" source="WrQY5icMR6syhaIgD9Ea-1" target="WrQY5icMR6syhaIgD9Ea-14" edge="1">
          <mxGeometry relative="1" as="geometry">
            <mxPoint x="-580" y="189.70999999999998" as="sourcePoint" />
            <mxPoint x="-480" y="189.70999999999998" as="targetPoint" />
          </mxGeometry>
        </mxCell>
        <mxCell id="WrQY5icMR6syhaIgD9Ea-36" value="FastQ" style="edgeLabel;resizable=0;html=1;align=center;verticalAlign=middle;" parent="WrQY5icMR6syhaIgD9Ea-35" connectable="0" vertex="1">
          <mxGeometry relative="1" as="geometry" />
        </mxCell>
        <mxCell id="WrQY5icMR6syhaIgD9Ea-39" value="" style="endArrow=classic;html=1;" parent="1" edge="1">
          <mxGeometry relative="1" as="geometry">
            <mxPoint x="-840" y="610" as="sourcePoint" />
            <mxPoint x="-740" y="610" as="targetPoint" />
          </mxGeometry>
        </mxCell>
        <mxCell id="WrQY5icMR6syhaIgD9Ea-40" value="Label" style="edgeLabel;resizable=0;html=1;align=center;verticalAlign=middle;" parent="WrQY5icMR6syhaIgD9Ea-39" connectable="0" vertex="1">
          <mxGeometry relative="1" as="geometry">
            <mxPoint x="70" y="10" as="offset" />
          </mxGeometry>
        </mxCell>
        <mxCell id="WrQY5icMR6syhaIgD9Ea-41" value="" style="endArrow=classic;html=1;exitX=1;exitY=0.5;exitDx=0;exitDy=0;entryX=0;entryY=0.5;entryDx=0;entryDy=0;fillColor=#e1d5e7;strokeColor=#9673a6;" parent="1" source="WrQY5icMR6syhaIgD9Ea-89" target="WrQY5icMR6syhaIgD9Ea-77" edge="1">
          <mxGeometry relative="1" as="geometry">
            <mxPoint x="60" y="150" as="sourcePoint" />
            <mxPoint x="220" y="60" as="targetPoint" />
          </mxGeometry>
        </mxCell>
        <mxCell id="WrQY5icMR6syhaIgD9Ea-42" value="Isilon Data Sync" style="edgeLabel;resizable=0;html=1;align=center;verticalAlign=middle;" parent="WrQY5icMR6syhaIgD9Ea-41" connectable="0" vertex="1">
          <mxGeometry relative="1" as="geometry" />
        </mxCell>
        <mxCell id="WrQY5icMR6syhaIgD9Ea-46" value="" style="endArrow=classic;html=1;exitX=0.617;exitY=0.467;exitDx=0;exitDy=0;exitPerimeter=0;entryX=0;entryY=0.75;entryDx=0;entryDy=0;fillColor=#e1d5e7;strokeColor=#9673a6;" parent="1" source="WrQY5icMR6syhaIgD9Ea-47" target="WrQY5icMR6syhaIgD9Ea-14" edge="1">
          <mxGeometry width="50" height="50" relative="1" as="geometry">
            <mxPoint x="-430" y="120" as="sourcePoint" />
            <mxPoint x="-430" y="380" as="targetPoint" />
          </mxGeometry>
        </mxCell>
        <mxCell id="WrQY5icMR6syhaIgD9Ea-47" value="" style="shape=waypoint;sketch=0;fillStyle=solid;size=6;pointerEvents=1;points=[];fillColor=#e1d5e7;resizable=0;rotatable=0;perimeter=centerPerimeter;snapToPoint=1;strokeColor=#9673a6;opacity=0;" parent="1" vertex="1">
          <mxGeometry x="-540" y="150" width="40" height="40" as="geometry" />
        </mxCell>
        <mxCell id="WrQY5icMR6syhaIgD9Ea-48" value="" style="endArrow=classic;html=1;entryX=0;entryY=0.75;entryDx=0;entryDy=0;fillColor=#e1d5e7;strokeColor=#9673a6;" parent="1" source="WrQY5icMR6syhaIgD9Ea-47" target="WrQY5icMR6syhaIgD9Ea-15" edge="1">
          <mxGeometry width="50" height="50" relative="1" as="geometry">
            <mxPoint x="-460" y="170" as="sourcePoint" />
            <mxPoint x="-370" y="125" as="targetPoint" />
          </mxGeometry>
        </mxCell>
        <mxCell id="WrQY5icMR6syhaIgD9Ea-50" style="edgeStyle=orthogonalEdgeStyle;rounded=0;orthogonalLoop=1;jettySize=auto;html=1;exitX=0.5;exitY=1;exitDx=0;exitDy=0;entryX=0.5;entryY=0;entryDx=0;entryDy=0;endArrow=classic;endFill=1;" parent="1" source="WrQY5icMR6syhaIgD9Ea-49" target="WrQY5icMR6syhaIgD9Ea-2" edge="1">
          <mxGeometry relative="1" as="geometry" />
        </mxCell>
        <mxCell id="WrQY5icMR6syhaIgD9Ea-49" value="" style="aspect=fixed;perimeter=ellipsePerimeter;html=1;align=center;shadow=0;dashed=0;spacingTop=3;image;image=img/lib/active_directory/users.svg;gradientColor=#B0E3E6;gradientDirection=east;" parent="1" vertex="1">
          <mxGeometry x="-996.5" width="33" height="50" as="geometry" />
        </mxCell>
        <mxCell id="WrQY5icMR6syhaIgD9Ea-55" value="" style="group" parent="1" vertex="1" connectable="0">
          <mxGeometry x="-400" width="310" height="200" as="geometry" />
        </mxCell>
        <mxCell id="WrQY5icMR6syhaIgD9Ea-51" value="&lt;b&gt;&lt;font style=&quot;font-size: 14px&quot;&gt;/Data/NovaSeq&lt;/font&gt;&lt;/b&gt;" style="rounded=0;whiteSpace=wrap;html=1;" parent="WrQY5icMR6syhaIgD9Ea-55" vertex="1">
          <mxGeometry y="150" width="310" height="50" as="geometry" />
        </mxCell>
        <mxCell id="WrQY5icMR6syhaIgD9Ea-54" value="Geno4me" style="ellipse;whiteSpace=wrap;html=1;gradientDirection=east;fillColor=#bac8d3;strokeColor=#23445d;" parent="WrQY5icMR6syhaIgD9Ea-55" vertex="1">
          <mxGeometry x="10" y="160" width="60" height="30" as="geometry" />
        </mxCell>
        <mxCell id="WrQY5icMR6syhaIgD9Ea-12" value="" style="rounded=0;whiteSpace=wrap;html=1;" parent="WrQY5icMR6syhaIgD9Ea-55" vertex="1">
          <mxGeometry width="310" height="50" as="geometry" />
        </mxCell>
        <mxCell id="WrQY5icMR6syhaIgD9Ea-11" value="" style="aspect=fixed;perimeter=ellipsePerimeter;html=1;align=center;shadow=0;dashed=0;spacingTop=3;image;image=img/lib/active_directory/hard_disk.svg;" parent="WrQY5icMR6syhaIgD9Ea-55" vertex="1">
          <mxGeometry x="10" y="10" width="50" height="27" as="geometry" />
        </mxCell>
        <mxCell id="WrQY5icMR6syhaIgD9Ea-13" value="&lt;b&gt;&lt;font style=&quot;font-size: 14px&quot;&gt;//WN63307.providence.org&lt;/font&gt;&lt;/b&gt;" style="text;html=1;strokeColor=none;fillColor=none;align=center;verticalAlign=middle;whiteSpace=wrap;rounded=0;" parent="WrQY5icMR6syhaIgD9Ea-55" vertex="1">
          <mxGeometry x="70" y="13.5" width="180" height="20" as="geometry" />
        </mxCell>
        <mxCell id="WrQY5icMR6syhaIgD9Ea-14" value="" style="rounded=0;whiteSpace=wrap;html=1;" parent="WrQY5icMR6syhaIgD9Ea-55" vertex="1">
          <mxGeometry y="50" width="310" height="50" as="geometry" />
        </mxCell>
        <mxCell id="WrQY5icMR6syhaIgD9Ea-15" value="" style="rounded=0;whiteSpace=wrap;html=1;" parent="WrQY5icMR6syhaIgD9Ea-55" vertex="1">
          <mxGeometry y="100" width="310" height="50" as="geometry" />
        </mxCell>
        <mxCell id="WrQY5icMR6syhaIgD9Ea-17" value="&lt;b&gt;&lt;font style=&quot;font-size: 14px&quot;&gt;/Data/MiSeq&lt;/font&gt;&lt;/b&gt;" style="text;html=1;strokeColor=none;fillColor=none;align=center;verticalAlign=middle;whiteSpace=wrap;rounded=0;" parent="WrQY5icMR6syhaIgD9Ea-55" vertex="1">
          <mxGeometry x="70" y="65" width="180" height="20" as="geometry" />
        </mxCell>
        <mxCell id="WrQY5icMR6syhaIgD9Ea-18" value="&lt;b&gt;&lt;font style=&quot;font-size: 14px&quot;&gt;/Data/NovaSeq&lt;/font&gt;&lt;/b&gt;" style="text;html=1;strokeColor=none;fillColor=none;align=center;verticalAlign=middle;whiteSpace=wrap;rounded=0;" parent="WrQY5icMR6syhaIgD9Ea-55" vertex="1">
          <mxGeometry x="70" y="115" width="180" height="20" as="geometry" />
        </mxCell>
        <mxCell id="WrQY5icMR6syhaIgD9Ea-52" value="Archer" style="ellipse;whiteSpace=wrap;html=1;gradientDirection=east;fillColor=#fff2cc;strokeColor=#d6b656;" parent="WrQY5icMR6syhaIgD9Ea-55" vertex="1">
          <mxGeometry x="10" y="60" width="60" height="30" as="geometry" />
        </mxCell>
        <mxCell id="WrQY5icMR6syhaIgD9Ea-53" value="TS0500" style="ellipse;whiteSpace=wrap;html=1;gradientDirection=east;fillColor=#b1ddf0;strokeColor=#10739e;" parent="WrQY5icMR6syhaIgD9Ea-55" vertex="1">
          <mxGeometry x="10" y="110" width="60" height="30" as="geometry" />
        </mxCell>
        <mxCell id="WrQY5icMR6syhaIgD9Ea-56" value="" style="shape=waypoint;sketch=0;fillStyle=solid;size=6;pointerEvents=1;points=[];fillColor=none;resizable=0;rotatable=0;perimeter=centerPerimeter;snapToPoint=1;opacity=0;" parent="1" vertex="1">
          <mxGeometry x="-510" y="115" width="40" height="40" as="geometry" />
        </mxCell>
        <mxCell id="WrQY5icMR6syhaIgD9Ea-58" value="" style="endArrow=classic;html=1;entryX=0;entryY=0.5;entryDx=0;entryDy=0;fillColor=#b0e3e6;strokeColor=#B1DDF0;" parent="1" source="WrQY5icMR6syhaIgD9Ea-56" target="WrQY5icMR6syhaIgD9Ea-15" edge="1">
          <mxGeometry width="50" height="50" relative="1" as="geometry">
            <mxPoint x="-550" y="310" as="sourcePoint" />
            <mxPoint x="-500" y="260" as="targetPoint" />
          </mxGeometry>
        </mxCell>
        <mxCell id="WrQY5icMR6syhaIgD9Ea-59" value="" style="endArrow=classic;html=1;entryX=0;entryY=0.5;entryDx=0;entryDy=0;fillColor=#bac8d3;strokeColor=#BAC8D3;" parent="1" source="WrQY5icMR6syhaIgD9Ea-56" target="WrQY5icMR6syhaIgD9Ea-51" edge="1">
          <mxGeometry width="50" height="50" relative="1" as="geometry">
            <mxPoint x="-470" y="310" as="sourcePoint" />
            <mxPoint x="-420" y="260" as="targetPoint" />
          </mxGeometry>
        </mxCell>
        <mxCell id="WrQY5icMR6syhaIgD9Ea-60" value="" style="endArrow=classic;html=1;entryX=0;entryY=0.75;entryDx=0;entryDy=0;fillColor=#e1d5e7;strokeColor=#9673a6;exitX=0.569;exitY=0.565;exitDx=0;exitDy=0;exitPerimeter=0;" parent="1" source="WrQY5icMR6syhaIgD9Ea-47" target="WrQY5icMR6syhaIgD9Ea-51" edge="1">
          <mxGeometry width="50" height="50" relative="1" as="geometry">
            <mxPoint x="-510" y="180" as="sourcePoint" />
            <mxPoint x="-390" y="147.5" as="targetPoint" />
          </mxGeometry>
        </mxCell>
        <mxCell id="WrQY5icMR6syhaIgD9Ea-63" value="&lt;font style=&quot;font-size: 10px&quot;&gt;FastQ&lt;br&gt;&amp;nbsp;Pair &amp;amp; Size &lt;br&gt;Validation&lt;/font&gt;" style="shape=step;perimeter=stepPerimeter;whiteSpace=wrap;html=1;fixedSize=1;gradientDirection=east;fillColor=#FFF2CC;strokeColor=#9673a6;" parent="1" vertex="1">
          <mxGeometry x="-790" y="260" width="120" height="80" as="geometry" />
        </mxCell>
        <mxCell id="WrQY5icMR6syhaIgD9Ea-64" value="&lt;font style=&quot;font-size: 10px&quot;&gt;POSCON &lt;br&gt;Verification&lt;/font&gt;" style="shape=step;perimeter=stepPerimeter;whiteSpace=wrap;html=1;fixedSize=1;gradientDirection=east;fillColor=#FFF2CC;strokeColor=#9673a6;" parent="1" vertex="1">
          <mxGeometry x="-690" y="260" width="120" height="80" as="geometry" />
        </mxCell>
        <mxCell id="WrQY5icMR6syhaIgD9Ea-65" value="&lt;font style=&quot;font-size: 10px&quot;&gt;Archer &lt;br&gt;Analysis&lt;br&gt;&lt;/font&gt;" style="shape=step;perimeter=stepPerimeter;whiteSpace=wrap;html=1;fixedSize=1;gradientDirection=east;fillColor=#FFF2CC;strokeColor=#9673a6;" parent="1" vertex="1">
          <mxGeometry x="-590" y="260" width="120" height="80" as="geometry" />
        </mxCell>
        <mxCell id="WrQY5icMR6syhaIgD9Ea-66" value="&lt;font style=&quot;font-size: 10px&quot;&gt;Isilon Data Sync&lt;/font&gt;" style="shape=step;perimeter=stepPerimeter;whiteSpace=wrap;html=1;fixedSize=1;gradientDirection=east;fillColor=#FFF2CC;strokeColor=#9673a6;" parent="1" vertex="1">
          <mxGeometry x="-490" y="260" width="120" height="80" as="geometry" />
        </mxCell>
        <mxCell id="WrQY5icMR6syhaIgD9Ea-67" value="&lt;font style=&quot;font-size: 10px&quot;&gt;GCS Data Sync&lt;/font&gt;" style="shape=step;perimeter=stepPerimeter;whiteSpace=wrap;html=1;fixedSize=1;gradientDirection=east;fillColor=#FFF2CC;strokeColor=#9673a6;" parent="1" vertex="1">
          <mxGeometry x="-390" y="260" width="120" height="80" as="geometry" />
        </mxCell>
        <mxCell id="WrQY5icMR6syhaIgD9Ea-68" value="&lt;font style=&quot;font-size: 10px&quot;&gt;GBQ Upload&lt;/font&gt;" style="shape=step;perimeter=stepPerimeter;whiteSpace=wrap;html=1;fixedSize=1;gradientDirection=east;fillColor=#FFF2CC;strokeColor=#82b366;" parent="1" vertex="1">
          <mxGeometry x="-290" y="260" width="120" height="80" as="geometry" />
        </mxCell>
        <mxCell id="WrQY5icMR6syhaIgD9Ea-69" value="&lt;span style=&quot;color: rgb(0 , 0 , 0) ; font-family: &amp;#34;helvetica&amp;#34; ; font-size: 10px ; font-style: normal ; font-weight: 400 ; letter-spacing: normal ; text-align: center ; text-indent: 0px ; text-transform: none ; word-spacing: 0px ; background-color: rgb(248 , 249 , 250) ; display: inline ; float: none&quot;&gt;VariantPlex&amp;nbsp;&lt;/span&gt;&lt;span style=&quot;color: rgb(0 , 0 , 0) ; font-family: &amp;#34;helvetica&amp;#34; ; font-size: 10px ; font-style: normal ; font-weight: 400 ; letter-spacing: normal ; text-align: center ; text-indent: 0px ; text-transform: none ; word-spacing: 0px ; background-color: rgb(248 , 249 , 250) ; display: inline ; float: none&quot;&gt;Myeloid&lt;/span&gt;" style="text;whiteSpace=wrap;html=1;" parent="1" vertex="1">
          <mxGeometry x="-130" y="760" width="150" height="60" as="geometry" />
        </mxCell>
        <mxCell id="WrQY5icMR6syhaIgD9Ea-70" value="&lt;span style=&quot;font-size: 10px&quot;&gt;NgsReviewer&lt;/span&gt;" style="shape=step;perimeter=stepPerimeter;whiteSpace=wrap;html=1;fixedSize=1;gradientDirection=east;fillColor=#FFF2CC;strokeColor=#d79b00;" parent="1" vertex="1">
          <mxGeometry x="-190" y="260" width="120" height="80" as="geometry" />
        </mxCell>
        <mxCell id="WrQY5icMR6syhaIgD9Ea-92" value="" style="group" parent="1" vertex="1" connectable="0">
          <mxGeometry x="40" width="310" height="100" as="geometry" />
        </mxCell>
        <mxCell id="WrQY5icMR6syhaIgD9Ea-86" value="" style="rounded=0;whiteSpace=wrap;html=1;" parent="WrQY5icMR6syhaIgD9Ea-92" vertex="1">
          <mxGeometry width="310" height="50" as="geometry" />
        </mxCell>
        <mxCell id="WrQY5icMR6syhaIgD9Ea-88" value="&lt;b&gt;&lt;font style=&quot;font-size: 14px&quot;&gt;Omics Server: ESX Cluster&lt;/font&gt;&lt;/b&gt;" style="text;html=1;strokeColor=none;fillColor=none;align=center;verticalAlign=middle;whiteSpace=wrap;rounded=0;" parent="WrQY5icMR6syhaIgD9Ea-92" vertex="1">
          <mxGeometry x="80" y="13.5" width="190" height="20" as="geometry" />
        </mxCell>
        <mxCell id="WrQY5icMR6syhaIgD9Ea-89" value="" style="rounded=0;whiteSpace=wrap;html=1;" parent="WrQY5icMR6syhaIgD9Ea-92" vertex="1">
          <mxGeometry y="50" width="310" height="50" as="geometry" />
        </mxCell>
        <mxCell id="WrQY5icMR6syhaIgD9Ea-90" value="&lt;b&gt;&lt;font style=&quot;font-size: 14px&quot;&gt;Analysis VM: 170.220.59.171&lt;/font&gt;&lt;/b&gt;" style="text;html=1;strokeColor=none;fillColor=none;align=center;verticalAlign=middle;whiteSpace=wrap;rounded=0;" parent="WrQY5icMR6syhaIgD9Ea-92" vertex="1">
          <mxGeometry x="80" y="65" width="180" height="20" as="geometry" />
        </mxCell>
        <mxCell id="WrQY5icMR6syhaIgD9Ea-91" value="Archer" style="ellipse;whiteSpace=wrap;html=1;gradientDirection=east;fillColor=#fff2cc;strokeColor=#d6b656;" parent="WrQY5icMR6syhaIgD9Ea-92" vertex="1">
          <mxGeometry x="10" y="60" width="60" height="30" as="geometry" />
        </mxCell>
        <mxCell id="WrQY5icMR6syhaIgD9Ea-93" value="" style="aspect=fixed;perimeter=ellipsePerimeter;html=1;align=center;shadow=0;dashed=0;spacingTop=3;image;image=img/lib/active_directory/generic_server.svg;strokeColor=#E1D5E7;fillColor=#000000;gradientColor=none;gradientDirection=east;" parent="WrQY5icMR6syhaIgD9Ea-92" vertex="1">
          <mxGeometry x="15" y="2.75" width="23.24" height="41.5" as="geometry" />
        </mxCell>
        <mxCell id="WrQY5icMR6syhaIgD9Ea-94" value="" style="group" parent="1" vertex="1" connectable="0">
          <mxGeometry x="480" width="310" height="100" as="geometry" />
        </mxCell>
        <mxCell id="WrQY5icMR6syhaIgD9Ea-77" value="" style="rounded=0;whiteSpace=wrap;html=1;" parent="WrQY5icMR6syhaIgD9Ea-94" vertex="1">
          <mxGeometry y="50" width="310" height="50" as="geometry" />
        </mxCell>
        <mxCell id="WrQY5icMR6syhaIgD9Ea-79" value="&lt;b&gt;&lt;font style=&quot;font-size: 14px&quot;&gt;/reviewer_storage_bucket&lt;/font&gt;&lt;/b&gt;" style="text;html=1;strokeColor=none;fillColor=none;align=center;verticalAlign=middle;whiteSpace=wrap;rounded=0;" parent="WrQY5icMR6syhaIgD9Ea-94" vertex="1">
          <mxGeometry x="80" y="65" width="180" height="20" as="geometry" />
        </mxCell>
        <mxCell id="WrQY5icMR6syhaIgD9Ea-81" value="Archer" style="ellipse;whiteSpace=wrap;html=1;gradientDirection=east;fillColor=#fff2cc;strokeColor=#d6b656;" parent="WrQY5icMR6syhaIgD9Ea-94" vertex="1">
          <mxGeometry x="10" y="60" width="60" height="30" as="geometry" />
        </mxCell>
        <mxCell id="WrQY5icMR6syhaIgD9Ea-74" value="" style="rounded=0;whiteSpace=wrap;html=1;" parent="WrQY5icMR6syhaIgD9Ea-94" vertex="1">
          <mxGeometry width="310" height="50" as="geometry" />
        </mxCell>
        <mxCell id="WrQY5icMR6syhaIgD9Ea-75" value="" style="aspect=fixed;perimeter=ellipsePerimeter;html=1;align=center;shadow=0;dashed=0;spacingTop=3;image;image=img/lib/active_directory/hard_disk.svg;" parent="WrQY5icMR6syhaIgD9Ea-94" vertex="1">
          <mxGeometry x="10" y="10" width="50" height="27" as="geometry" />
        </mxCell>
        <mxCell id="WrQY5icMR6syhaIgD9Ea-76" value="&lt;b&gt;&lt;font style=&quot;font-size: 8px&quot;&gt;isippmcpvtnfs.providence.org:/ifs/NASISIppmc/cifs/S3Data&lt;/font&gt;&lt;/b&gt;" style="text;html=1;strokeColor=none;fillColor=none;align=center;verticalAlign=middle;whiteSpace=wrap;rounded=0;" parent="WrQY5icMR6syhaIgD9Ea-94" vertex="1">
          <mxGeometry x="90" y="13.5" width="180" height="20" as="geometry" />
        </mxCell>
        <mxCell id="WrQY5icMR6syhaIgD9Ea-96" value="" style="endArrow=classic;html=1;exitX=1;exitY=0.5;exitDx=0;exitDy=0;entryX=0;entryY=0.5;entryDx=0;entryDy=0;fillColor=#e1d5e7;strokeColor=#9673a6;" parent="1" source="WrQY5icMR6syhaIgD9Ea-14" target="WrQY5icMR6syhaIgD9Ea-89" edge="1">
          <mxGeometry width="50" height="50" relative="1" as="geometry">
            <mxPoint x="-20" y="160" as="sourcePoint" />
            <mxPoint x="30" y="110" as="targetPoint" />
          </mxGeometry>
        </mxCell>
        <mxCell id="WrQY5icMR6syhaIgD9Ea-97" value="" style="ellipse;shape=cloud;whiteSpace=wrap;html=1;gradientDirection=east;strokeColor=#82b366;fillColor=#d5e8d4;" parent="1" vertex="1">
          <mxGeometry x="-1100" y="-1050" width="1910" height="790" as="geometry" />
        </mxCell>
        <mxCell id="WrQY5icMR6syhaIgD9Ea-111" style="edgeStyle=orthogonalEdgeStyle;rounded=0;orthogonalLoop=1;jettySize=auto;html=1;exitX=0.5;exitY=0;exitDx=0;exitDy=0;entryX=1;entryY=0.5;entryDx=0;entryDy=0;endArrow=classic;endFill=1;" parent="1" source="WrQY5icMR6syhaIgD9Ea-103" target="WrQY5icMR6syhaIgD9Ea-107" edge="1">
          <mxGeometry relative="1" as="geometry" />
        </mxCell>
        <mxCell id="WrQY5icMR6syhaIgD9Ea-103" value="" style="strokeColor=#666666;shadow=1;strokeWidth=1;rounded=1;absoluteArcSize=1;arcSize=2;gradientDirection=east;fillColor=#f5f5f5;fontColor=#333333;" parent="1" vertex="1">
          <mxGeometry x="-540" y="-440" width="140" height="60" as="geometry" />
        </mxCell>
        <mxCell id="WrQY5icMR6syhaIgD9Ea-104" value="&lt;font style=&quot;font-size: 10px&quot;&gt;&lt;font color=&quot;#000000&quot; style=&quot;font-size: 10px&quot;&gt;reviewer_archer&lt;/font&gt;&lt;br&gt;&lt;/font&gt;Cloud Storage" style="dashed=0;connectable=0;html=1;fillColor=#5184F3;strokeColor=none;shape=mxgraph.gcp2.hexIcon;prIcon=cloud_storage;part=1;labelPosition=right;verticalLabelPosition=middle;align=left;verticalAlign=middle;spacingLeft=5;fontColor=#999999;fontSize=12;" parent="WrQY5icMR6syhaIgD9Ea-103" vertex="1">
          <mxGeometry y="0.5" width="44" height="39" relative="1" as="geometry">
            <mxPoint x="5" y="-19.5" as="offset" />
          </mxGeometry>
        </mxCell>
        <mxCell id="WrQY5icMR6syhaIgD9Ea-105" value="" style="strokeColor=#666666;shadow=1;strokeWidth=1;rounded=1;absoluteArcSize=1;arcSize=2;gradientDirection=east;fillColor=#f5f5f5;fontColor=#333333;" parent="1" vertex="1">
          <mxGeometry x="-810" y="-530" width="120" height="60" as="geometry" />
        </mxCell>
        <mxCell id="WrQY5icMR6syhaIgD9Ea-106" value="&lt;font color=&quot;#000000&quot;&gt;archer&lt;/font&gt;&lt;br&gt;BigQuery" style="dashed=0;connectable=0;html=1;fillColor=#5184F3;strokeColor=none;shape=mxgraph.gcp2.hexIcon;prIcon=bigquery;part=1;labelPosition=right;verticalLabelPosition=middle;align=left;verticalAlign=middle;spacingLeft=5;fontColor=#999999;fontSize=12;" parent="WrQY5icMR6syhaIgD9Ea-105" vertex="1">
          <mxGeometry y="0.5" width="44" height="39" relative="1" as="geometry">
            <mxPoint x="5" y="-19.5" as="offset" />
          </mxGeometry>
        </mxCell>
        <mxCell id="WrQY5icMR6syhaIgD9Ea-112" style="edgeStyle=orthogonalEdgeStyle;rounded=0;orthogonalLoop=1;jettySize=auto;html=1;exitX=0;exitY=0.5;exitDx=0;exitDy=0;entryX=1;entryY=0.5;entryDx=0;entryDy=0;endArrow=classic;endFill=1;" parent="1" source="WrQY5icMR6syhaIgD9Ea-107" target="WrQY5icMR6syhaIgD9Ea-105" edge="1">
          <mxGeometry relative="1" as="geometry" />
        </mxCell>
        <mxCell id="WrQY5icMR6syhaIgD9Ea-107" value="" style="strokeColor=#666666;shadow=1;strokeWidth=1;rounded=1;absoluteArcSize=1;arcSize=2;gradientDirection=east;fillColor=#f5f5f5;fontColor=#333333;" parent="1" vertex="1">
          <mxGeometry x="-630" y="-530" width="120" height="60" as="geometry" />
        </mxCell>
        <mxCell id="WrQY5icMR6syhaIgD9Ea-108" value="Cloud&#xa;Functions" style="dashed=0;connectable=0;html=1;fillColor=#5184F3;strokeColor=none;shape=mxgraph.gcp2.hexIcon;prIcon=cloud_functions;part=1;labelPosition=right;verticalLabelPosition=middle;align=left;verticalAlign=middle;spacingLeft=5;fontColor=#999999;fontSize=12;" parent="WrQY5icMR6syhaIgD9Ea-107" vertex="1">
          <mxGeometry y="0.5" width="44" height="39" relative="1" as="geometry">
            <mxPoint x="5" y="-19.5" as="offset" />
          </mxGeometry>
        </mxCell>
        <mxCell id="WrQY5icMR6syhaIgD9Ea-110" value="" style="endArrow=classic;html=1;strokeColor=#9673a6;exitX=0.5;exitY=0;exitDx=0;exitDy=0;fillColor=#e1d5e7;entryX=1;entryY=0.5;entryDx=0;entryDy=0;" parent="1" source="WrQY5icMR6syhaIgD9Ea-77" target="WrQY5icMR6syhaIgD9Ea-103" edge="1">
          <mxGeometry width="50" height="50" relative="1" as="geometry">
            <mxPoint x="410" y="-370" as="sourcePoint" />
            <mxPoint y="-350" as="targetPoint" />
          </mxGeometry>
        </mxCell>
        <mxCell id="WrQY5icMR6syhaIgD9Ea-113" value="NgsReviewer" style="rounded=1;whiteSpace=wrap;html=1;fillColor=#ffe6cc;strokeColor=#d79b00;" parent="1" vertex="1">
          <mxGeometry x="-850" y="-170" width="120" height="60" as="geometry" />
        </mxCell>
        <mxCell id="WrQY5icMR6syhaIgD9Ea-114" value="NgsReporter" style="rounded=1;whiteSpace=wrap;html=1;fillColor=#f5f5f5;strokeColor=#666666;fontColor=#333333;" parent="1" vertex="1">
          <mxGeometry x="-1040" y="540" width="120" height="60" as="geometry" />
        </mxCell>
        <mxCell id="WrQY5icMR6syhaIgD9Ea-115" value="" style="endArrow=classic;startArrow=classic;html=1;strokeColor=#36393d;exitX=0.75;exitY=0;exitDx=0;exitDy=0;entryX=0.5;entryY=1;entryDx=0;entryDy=0;fillColor=#ffcc99;" parent="1" source="WrQY5icMR6syhaIgD9Ea-113" target="WrQY5icMR6syhaIgD9Ea-105" edge="1">
          <mxGeometry width="50" height="50" relative="1" as="geometry">
            <mxPoint x="-900" y="370" as="sourcePoint" />
            <mxPoint x="-850" y="320" as="targetPoint" />
          </mxGeometry>
        </mxCell>
        <mxCell id="WrQY5icMR6syhaIgD9Ea-116" value="" style="endArrow=classic;html=1;strokeColor=#000000;exitX=0.75;exitY=0;exitDx=0;exitDy=0;entryX=0.5;entryY=1;entryDx=0;entryDy=0;" parent="1" source="WrQY5icMR6syhaIgD9Ea-2" target="WrQY5icMR6syhaIgD9Ea-113" edge="1">
          <mxGeometry width="50" height="50" relative="1" as="geometry">
            <mxPoint x="-850" as="sourcePoint" />
            <mxPoint x="-800" y="-50" as="targetPoint" />
          </mxGeometry>
        </mxCell>
        <mxCell id="WrQY5icMR6syhaIgD9Ea-117" value="&lt;span style=&quot;font-size: 10px&quot;&gt;GCS Data Sync&lt;/span&gt;" style="shape=step;perimeter=stepPerimeter;whiteSpace=wrap;html=1;fixedSize=1;gradientDirection=east;fillColor=#B1DDF0;strokeColor=#9673a6;" parent="1" vertex="1">
          <mxGeometry x="-790" y="340" width="120" height="80" as="geometry" />
        </mxCell>
        <mxCell id="WrQY5icMR6syhaIgD9Ea-118" value="&lt;span style=&quot;font-size: 10px&quot;&gt;BCL to FASTQ Conversion&lt;/span&gt;" style="shape=step;perimeter=stepPerimeter;whiteSpace=wrap;html=1;fixedSize=1;gradientDirection=east;fillColor=#e1d5e7;strokeColor=#9673a6;gradientColor=#D5E8D4;" parent="1" vertex="1">
          <mxGeometry x="-495" y="650" width="120" height="80" as="geometry" />
        </mxCell>
        <mxCell id="WrQY5icMR6syhaIgD9Ea-119" value="&lt;font style=&quot;font-size: 10px&quot;&gt;TSO 500 Analysis &lt;br&gt;via Dsub&lt;br&gt;&lt;/font&gt;" style="shape=step;perimeter=stepPerimeter;whiteSpace=wrap;html=1;fixedSize=1;gradientDirection=east;fillColor=#d5e8d4;strokeColor=#82b366;" parent="1" vertex="1">
          <mxGeometry x="-340" y="730" width="120" height="80" as="geometry" />
        </mxCell>
        <mxCell id="WrQY5icMR6syhaIgD9Ea-120" value="&lt;font style=&quot;font-size: 10px&quot;&gt;GCS Data Sync&lt;/font&gt;" style="shape=step;perimeter=stepPerimeter;whiteSpace=wrap;html=1;fixedSize=1;gradientDirection=east;strokeColor=#82b366;sketch=0;rounded=0;shadow=0;fillStyle=solid;fillColor=#B1DDF0;" parent="1" vertex="1">
          <mxGeometry x="-590" y="340" width="120" height="80" as="geometry" />
        </mxCell>
        <mxCell id="WrQY5icMR6syhaIgD9Ea-121" value="&lt;font style=&quot;font-size: 10px&quot;&gt;Star Fusion&lt;/font&gt;" style="shape=step;perimeter=stepPerimeter;whiteSpace=wrap;html=1;fixedSize=1;gradientDirection=east;fillColor=#B1DDF0;strokeColor=#82b366;" parent="1" vertex="1">
          <mxGeometry x="-390" y="340" width="120" height="80" as="geometry" />
        </mxCell>
        <mxCell id="WrQY5icMR6syhaIgD9Ea-122" value="&lt;font style=&quot;font-size: 10px&quot;&gt;GBQ Upload&lt;/font&gt;" style="shape=step;perimeter=stepPerimeter;whiteSpace=wrap;html=1;fixedSize=1;gradientDirection=east;fillColor=#B1DDF0;strokeColor=#82b366;" parent="1" vertex="1">
          <mxGeometry x="-290" y="340" width="120" height="80" as="geometry" />
        </mxCell>
        <mxCell id="WrQY5icMR6syhaIgD9Ea-123" value="&lt;span style=&quot;font-size: 10px&quot;&gt;NgsReviewer&lt;/span&gt;" style="shape=step;perimeter=stepPerimeter;whiteSpace=wrap;html=1;fixedSize=1;gradientDirection=east;fillColor=#B1DDF0;strokeColor=#d79b00;" parent="1" vertex="1">
          <mxGeometry x="-190" y="340" width="120" height="80" as="geometry" />
        </mxCell>
        <mxCell id="WrQY5icMR6syhaIgD9Ea-124" value="" style="shape=parallelogram;perimeter=parallelogramPerimeter;whiteSpace=wrap;html=1;fixedSize=1;rounded=0;shadow=0;sketch=0;strokeColor=#82B366;fillColor=#B1DDF0;gradientDirection=east;size=20;" parent="1" vertex="1">
          <mxGeometry x="-690" y="380" width="120" height="40" as="geometry" />
        </mxCell>
        <mxCell id="ADxAo6VJDCDAHwZJdcY--1" value="B1DDF0" style="text;whiteSpace=wrap;html=1;fillColor=#B1DDF0;" vertex="1" parent="1">
          <mxGeometry x="-540" y="720" width="70" height="30" as="geometry" />
        </mxCell>
        <mxCell id="ADxAo6VJDCDAHwZJdcY--2" value="D5E8D4" style="text;html=1;align=center;verticalAlign=middle;resizable=0;points=[];autosize=1;strokeColor=none;fillColor=#D5E8D4;" vertex="1" parent="1">
          <mxGeometry x="-535" y="760" width="60" height="20" as="geometry" />
        </mxCell>
        <mxCell id="ADxAo6VJDCDAHwZJdcY--3" value="E1D5E7" style="text;html=1;align=center;verticalAlign=middle;resizable=0;points=[];autosize=1;strokeColor=none;fillColor=#E1D5E7;" vertex="1" parent="1">
          <mxGeometry x="-460" y="720" width="60" height="20" as="geometry" />
        </mxCell>
        <mxCell id="ADxAo6VJDCDAHwZJdcY--16" value="" style="shape=step;perimeter=stepPerimeter;whiteSpace=wrap;html=1;fixedSize=1;gradientDirection=east;strokeColor=#23445d;sketch=0;rounded=0;shadow=0;fillStyle=solid;fillColor=#bac8d3;" vertex="1" parent="1">
          <mxGeometry x="-590" y="420" width="120" height="80" as="geometry" />
        </mxCell>
        <mxCell id="ADxAo6VJDCDAHwZJdcY--19" value="&lt;font color=&quot;#82b366&quot;&gt;82B366&lt;/font&gt;" style="text;html=1;align=center;verticalAlign=middle;resizable=0;points=[];autosize=1;strokeColor=none;fillColor=none;" vertex="1" parent="1">
          <mxGeometry x="-460" y="760" width="60" height="20" as="geometry" />
        </mxCell>
        <mxCell id="ADxAo6VJDCDAHwZJdcY--23" value="" style="group" vertex="1" connectable="0" parent="1">
          <mxGeometry x="-490" y="340" width="120" height="80" as="geometry" />
        </mxCell>
        <mxCell id="WrQY5icMR6syhaIgD9Ea-125" value="" style="shape=step;perimeter=stepPerimeter;whiteSpace=wrap;html=1;fixedSize=1;gradientDirection=east;fillColor=#B1DDF0;strokeColor=#82b366;size=20;" parent="ADxAo6VJDCDAHwZJdcY--23" vertex="1">
          <mxGeometry x="75" width="30" height="80" as="geometry" />
        </mxCell>
        <mxCell id="ADxAo6VJDCDAHwZJdcY--9" value="" style="shape=step;perimeter=stepPerimeter;whiteSpace=wrap;html=1;fixedSize=1;gradientDirection=east;fillColor=#B1DDF0;strokeColor=#82b366;size=20;" vertex="1" parent="ADxAo6VJDCDAHwZJdcY--23">
          <mxGeometry x="30" width="30" height="80" as="geometry" />
        </mxCell>
        <mxCell id="ADxAo6VJDCDAHwZJdcY--10" value="" style="shape=step;perimeter=stepPerimeter;whiteSpace=wrap;html=1;fixedSize=1;gradientDirection=east;fillColor=#B1DDF0;strokeColor=#82b366;size=20;" vertex="1" parent="ADxAo6VJDCDAHwZJdcY--23">
          <mxGeometry x="45" width="30" height="80" as="geometry" />
        </mxCell>
        <mxCell id="ADxAo6VJDCDAHwZJdcY--11" value="" style="shape=step;perimeter=stepPerimeter;whiteSpace=wrap;html=1;fixedSize=1;gradientDirection=east;fillColor=#B1DDF0;strokeColor=#82b366;size=20;" vertex="1" parent="ADxAo6VJDCDAHwZJdcY--23">
          <mxGeometry x="60" width="30" height="80" as="geometry" />
        </mxCell>
        <mxCell id="ADxAo6VJDCDAHwZJdcY--12" value="" style="shape=step;perimeter=stepPerimeter;whiteSpace=wrap;html=1;fixedSize=1;gradientDirection=east;fillColor=#B1DDF0;strokeColor=#82b366;size=20;" vertex="1" parent="ADxAo6VJDCDAHwZJdcY--23">
          <mxGeometry x="15" width="30" height="80" as="geometry" />
        </mxCell>
        <mxCell id="ADxAo6VJDCDAHwZJdcY--15" value="" style="shape=step;perimeter=stepPerimeter;whiteSpace=wrap;html=1;fixedSize=1;gradientDirection=east;fillColor=#B1DDF0;strokeColor=#82b366;size=20;" vertex="1" parent="ADxAo6VJDCDAHwZJdcY--23">
          <mxGeometry width="30" height="80" as="geometry" />
        </mxCell>
        <mxCell id="ADxAo6VJDCDAHwZJdcY--17" value="" style="shape=step;perimeter=stepPerimeter;whiteSpace=wrap;html=1;fixedSize=1;gradientDirection=east;fillColor=#B1DDF0;strokeColor=#82b366;size=20;" vertex="1" parent="ADxAo6VJDCDAHwZJdcY--23">
          <mxGeometry x="90" width="30" height="80" as="geometry" />
        </mxCell>
        <mxCell id="ADxAo6VJDCDAHwZJdcY--18" value="" style="rounded=1;whiteSpace=wrap;html=1;fillColor=#b1ddf0;strokeColor=#82B366;" vertex="1" parent="ADxAo6VJDCDAHwZJdcY--23">
          <mxGeometry x="27.5" y="20" width="65" height="40" as="geometry" />
        </mxCell>
        <mxCell id="ADxAo6VJDCDAHwZJdcY--22" value="&lt;font style=&quot;font-size: 10px&quot;&gt;Parallelized&lt;br&gt;TSO500&lt;br&gt;Analysis&lt;/font&gt;" style="text;html=1;strokeColor=none;fillColor=none;align=center;verticalAlign=middle;whiteSpace=wrap;rounded=0;" vertex="1" parent="ADxAo6VJDCDAHwZJdcY--23">
          <mxGeometry width="120" height="80" as="geometry" />
        </mxCell>
        <mxCell id="ADxAo6VJDCDAHwZJdcY--24" value="" style="shape=parallelogram;perimeter=parallelogramPerimeter;whiteSpace=wrap;html=1;fixedSize=1;rounded=0;shadow=0;sketch=0;strokeColor=#9673A6;fillColor=#B1DDF0;gradientDirection=east;size=20;flipH=1;" vertex="1" parent="1">
          <mxGeometry x="-690" y="340" width="120" height="40" as="geometry" />
        </mxCell>
        <mxCell id="ADxAo6VJDCDAHwZJdcY--25" value="BCL to FastQ Conversion" style="text;html=1;strokeColor=none;fillColor=none;align=center;verticalAlign=middle;whiteSpace=wrap;rounded=0;" vertex="1" parent="1">
          <mxGeometry x="-690" y="340" width="120" height="80" as="geometry" />
        </mxCell>
        <mxCell id="ADxAo6VJDCDAHwZJdcY--26" value="Text" style="text;html=1;align=center;verticalAlign=middle;resizable=0;points=[];autosize=1;strokeColor=#d6b656;fillColor=#fff2cc;" vertex="1" parent="1">
          <mxGeometry x="-820" y="680" width="40" height="20" as="geometry" />
        </mxCell>
        <mxCell id="ADxAo6VJDCDAHwZJdcY--27" value="&lt;font style=&quot;font-size: 10px&quot;&gt;Storage&lt;br&gt;&amp;amp;&lt;br&gt;SampleSheet&lt;br&gt;Verification&lt;/font&gt;" style="shape=step;perimeter=stepPerimeter;whiteSpace=wrap;html=1;fixedSize=1;gradientDirection=east;fillColor=#bac8d3;strokeColor=#23445d;" vertex="1" parent="1">
          <mxGeometry x="-790" y="420" width="120" height="80" as="geometry" />
        </mxCell>
        <mxCell id="ADxAo6VJDCDAHwZJdcY--28" value="&lt;span style=&quot;font-size: 10px&quot;&gt;Dragen&lt;br&gt;Data Sync&lt;/span&gt;" style="shape=step;perimeter=stepPerimeter;whiteSpace=wrap;html=1;fixedSize=1;gradientDirection=east;fillColor=#bac8d3;strokeColor=#23445d;" vertex="1" parent="1">
          <mxGeometry x="-690" y="420" width="120" height="80" as="geometry" />
        </mxCell>
        <mxCell id="ADxAo6VJDCDAHwZJdcY--29" value="&lt;font style=&quot;font-size: 10px&quot;&gt;Archer &lt;br&gt;Analysis&lt;br&gt;&lt;/font&gt;" style="shape=step;perimeter=stepPerimeter;whiteSpace=wrap;html=1;fixedSize=1;gradientDirection=east;fillColor=#FFF2CC;strokeColor=#9673a6;" vertex="1" parent="1">
          <mxGeometry x="-170" y="640" width="120" height="80" as="geometry" />
        </mxCell>
        <mxCell id="ADxAo6VJDCDAHwZJdcY--30" value="&lt;font style=&quot;font-size: 10px&quot;&gt;Datapod&lt;br&gt;Data Sync&lt;/font&gt;" style="shape=step;perimeter=stepPerimeter;whiteSpace=wrap;html=1;fixedSize=1;gradientDirection=east;fillColor=#bac8d3;strokeColor=#23445d;" vertex="1" parent="1">
          <mxGeometry x="-490" y="420" width="120" height="80" as="geometry" />
        </mxCell>
        <mxCell id="ADxAo6VJDCDAHwZJdcY--31" value="&lt;font style=&quot;font-size: 10px&quot;&gt;GCS&lt;br&gt;Data Sync&lt;br&gt;&lt;/font&gt;" style="shape=step;perimeter=stepPerimeter;whiteSpace=wrap;html=1;fixedSize=1;gradientDirection=east;fillColor=#bac8d3;strokeColor=#23445d;" vertex="1" parent="1">
          <mxGeometry x="-390" y="420" width="120" height="80" as="geometry" />
        </mxCell>
        <mxCell id="ADxAo6VJDCDAHwZJdcY--32" value="&lt;font style=&quot;font-size: 10px&quot;&gt;HTML&lt;br&gt;Generation&lt;br&gt;&lt;/font&gt;" style="shape=step;perimeter=stepPerimeter;whiteSpace=wrap;html=1;fixedSize=1;gradientDirection=east;fillColor=#bac8d3;strokeColor=#23445d;" vertex="1" parent="1">
          <mxGeometry x="-290" y="420" width="120" height="80" as="geometry" />
        </mxCell>
        <mxCell id="ADxAo6VJDCDAHwZJdcY--33" value="&lt;font style=&quot;font-size: 10px&quot;&gt;Conversion&lt;br&gt;&lt;/font&gt;" style="shape=step;perimeter=stepPerimeter;whiteSpace=wrap;html=1;fixedSize=1;gradientDirection=east;fillColor=#bac8d3;strokeColor=#23445d;horizontal=0;spacingTop=5;size=20;" vertex="1" parent="1">
          <mxGeometry x="-590" y="420" width="40" height="80" as="geometry" />
        </mxCell>
        <mxCell id="ADxAo6VJDCDAHwZJdcY--34" value="&lt;font style=&quot;font-size: 10px&quot;&gt;Analysis&lt;br&gt;&lt;/font&gt;" style="shape=step;perimeter=stepPerimeter;whiteSpace=wrap;html=1;fixedSize=1;gradientDirection=east;fillColor=#bac8d3;strokeColor=#23445d;horizontal=0;spacingTop=5;" vertex="1" parent="1">
          <mxGeometry x="-565" y="420" width="40" height="80" as="geometry" />
        </mxCell>
        <mxCell id="ADxAo6VJDCDAHwZJdcY--35" value="&lt;font style=&quot;font-size: 10px&quot;&gt;FastQC&lt;br&gt;&lt;/font&gt;" style="shape=step;perimeter=stepPerimeter;whiteSpace=wrap;html=1;fixedSize=1;gradientDirection=east;fillColor=#bac8d3;strokeColor=#23445d;horizontal=0;spacingTop=5;" vertex="1" parent="1">
          <mxGeometry x="-540" y="420" width="40" height="80" as="geometry" />
        </mxCell>
        <mxCell id="ADxAo6VJDCDAHwZJdcY--36" value="&lt;font style=&quot;font-size: 10px&quot;&gt;Analysis&lt;br&gt;&lt;/font&gt;" style="shape=step;perimeter=stepPerimeter;whiteSpace=wrap;html=1;fixedSize=1;gradientDirection=east;fillColor=#bac8d3;strokeColor=#23445d;horizontal=0;spacingTop=5;" vertex="1" parent="1">
          <mxGeometry x="-515" y="420" width="40" height="80" as="geometry" />
        </mxCell>
        <mxCell id="ADxAo6VJDCDAHwZJdcY--37" value="&lt;font style=&quot;font-size: 10px&quot;&gt;NgsReviewer&lt;br&gt;&lt;/font&gt;" style="shape=step;perimeter=stepPerimeter;whiteSpace=wrap;html=1;fixedSize=1;gradientDirection=east;fillColor=#BAC8D3;strokeColor=#d79b00;" vertex="1" parent="1">
          <mxGeometry x="-190" y="420" width="120" height="80" as="geometry" />
        </mxCell>
        <mxCell id="ADxAo6VJDCDAHwZJdcY--38" value="BAC8D3" style="text;html=1;align=center;verticalAlign=middle;resizable=0;points=[];autosize=1;strokeColor=none;fillColor=#BAC8D3;" vertex="1" parent="1">
          <mxGeometry x="-300" y="610" width="60" height="20" as="geometry" />
        </mxCell>
      </root>
    </mxGraphModel>
  </diagram>
</mxfile>
